<svg xmlns="http://www.w3.org/2000/svg" viewBox="-0.80 -121.95 1155.76 149.52" width="1156" height="150" role="img" aria-label="ZH.Who - Underground Band (zhw)"><title>ZH.Who - Underground Band (zhw)</title><path class="gold" fill="#d3122e" d="M68.85553470919324 -19.69981238273921Q68.29268292682926 -17.26078799249531 69.32457786116322 -15.853658536585366Q70.35647279549718 -14.446529080675422 72.13883677298311 -13.696060037523452Q73.92120075046904 -12.945590994371482 75.98499061913697 -12.664165103189493Q78.04878048780488 -12.382739212007504 79.73733583489681 -12.382739212007504H215.75984990619136L205.81613508442774 18.574108818011258H24.577861163227016Q20.825515947467167 18.574108818011258 17.5422138836773 15.853658536585366Q14.258911819887429 13.133208255159474 11.913696060037523 9.00562851782364Q9.568480300187616 4.878048780487805 8.630393996247655 0.18761726078799246Q7.692307692307692 -4.50281425891182 8.818011257035646 -8.25515947467167L26.45403377110694 -62.476547842401494H82.73921200750469ZM84.42776735459663 -35.0844277673546 92.3076923076923 -59.474671669793615Q92.68292682926828 -60.22514071294559 92.96435272045028 -60.88180112570356Q93.24577861163226 -61.53846153846153 93.80863039399624 -62.476547842401494H166.9793621013133Q166.9793621013133 -61.53846153846153 167.0731707317073 -60.88180112570356Q167.1669793621013 -60.22514071294559 166.79174484052533 -59.474671669793615L160.97560975609755 -41.46341463414634Q164.35272045028142 -41.46341463414634 168.57410881801127 -43.62101313320825Q172.79549718574108 -45.77861163227016 174.29643527204502 -50.28142589118199L178.23639774859285 -62.476547842401494H234.52157598499062L230.0187617260788 -48.592870544090054Q228.89305816135084 -44.8405253283302 224.95309568480297 -40.15009380863039Q221.01313320825514 -35.45966228893058 216.04127579737334 -31.332082551594745Q211.06941838649155 -27.20450281425891 205.81613508442774 -24.48405253283302Q200.56285178236396 -21.76360225140713 196.9981238273921 -21.76360225140713H92.3076923076923Q90.43151969981238 -21.76360225140713 88.74296435272045 -23.170731707317074Q87.05440900562851 -24.577861163227016 85.92870544090056 -26.547842401500937Q84.8030018761726 -28.517823639774857 84.33395872420263 -30.86303939962476Q83.86491557223265 -33.20825515947467 84.42776735459663 -35.0844277673546ZM181.61350844277672 -78.98686679174483Q180.1125703564728 -81.05065666041276 176.8292682926829 -81.61350844277673Q173.54596622889304 -82.17636022514071 171.10694183864913 -82.17636022514071H102.4390243902439Q100.0 -82.17636022514071 96.34146341463415 -81.61350844277673Q92.68292682926828 -81.05065666041276 90.0562851782364 -78.98686679174483H31.894934333958723L34.14634146341463 -86.11632270168855Q34.52157598499062 -86.86679174484053 34.70919324577861 -87.5234521575985Q34.8968105065666 -88.18011257035647 35.45966228893058 -89.11819887429643H242.77673545966226Q242.58911819887427 -88.55534709193245 242.58911819887427 -87.4296435272045Q242.58911819887427 -87.2420262664165 242.2138836772983 -86.11632270168855L239.96247654784239 -78.98686679174483ZM38.649155722326455 -93.80863039399624Q40.33771106941838 -95.87242026266416 42.58911819887429 -98.12382739212006Q44.8405253283302 -100.37523452157598 47.091932457786115 -102.4390243902439H239.5872420262664Q240.90056285178235 -100.37523452157598 241.5572232645403 -98.12382739212006Q242.2138836772983 -95.87242026266416 242.58911819887427 -93.80863039399624ZM55.72232645403377 -108.63039399624765Q62.288930581613506 -112.94559099437147 67.3545966228893 -112.94559099437147H226.64165103189492Q230.95684803001876 -112.94559099437147 235.27204502814257 -108.63039399624765ZM178.79924953095684 -64.16510318949344 182.1763602251407 -74.48405253283302Q182.3639774859287 -74.671669793621 182.3639774859287 -75.79737335834896H238.83677298311443L235.08442776735458 -64.16510318949344ZM87.2420262664165 -75.79737335834896Q87.05440900562851 -75.42213883677297 86.96060037523452 -75.14071294559099Q86.86679174484053 -74.859287054409 86.67917448405252 -74.48405253283302L83.30206378986867 -64.16510318949344H27.016885553470917L30.769230769230766 -75.79737335834896ZM95.12195121951218 -64.16510318949344Q98.12382739212006 -67.3545966228893 102.06378986866791 -70.0750469043152Q106.00375234521576 -72.79549718574108 108.81801125703564 -72.79549718574108H158.91181988742963Q161.53846153846152 -72.79549718574108 163.78986866791743 -70.0750469043152Q166.04127579737334 -67.3545966228893 166.79174484052533 -64.16510318949344ZM121.76360225140712 -51.031894934333955 119.13696060037523 -42.96435272045028Q118.76172607879924 -41.275797373358344 120.26266416510319 -40.431519699812384Q121.76360225140712 -39.587242026266416 123.26454033771107 -39.587242026266416Q124.765478424015 -39.587242026266416 126.73545966228892 -40.431519699812384Q128.70544090056285 -41.275797373358344 129.08067542213882 -42.96435272045028L131.7073170731707 -51.031894934333955Q132.4577861163227 -52.90806754221388 131.05065666041276 -53.84615384615384Q129.64352720450282 -54.78424015009381 128.14258911819886 -54.971857410881796Q126.64165103189492 -54.78424015009381 124.577861163227 -53.84615384615384Q122.51407129455909 -52.90806754221388 121.76360225140712 -51.031894934333955Z M320.8255159474671 -30.581613508442775H380.4878048780488L370.5440900562852 0.0H226.45403377110694L236.58536585365852 -31.144465290806753L295.4971857410882 -62.476547842401494H380.4878048780488ZM252.15759849906192 -78.98686679174483 255.34709193245777 -89.11819887429643H399.43714821763604L396.2476547842401 -78.98686679174483ZM393.0581613508443 -69.04315196998124 383.67729831144464 -64.16510318949344H298.686679174484L308.6303939962477 -69.41838649155721H248.96810506566604L251.03189493433396 -75.79737335834896H395.1219512195122ZM258.91181988742966 -100.0H403.00187617260787L400.93808630393994 -93.80863039399624H256.84803001876173Z M526.8292682926829 0.0H464.5403377110694L476.54784240150093 -36.96060037523452H457.2232645403377L445.2157598499062 0.0H382.9268292682927L403.18949343339585 -62.476547842401494H547.0919324577861ZM403.7523452157598 -64.16510318949344 407.5046904315197 -75.79737335834896H469.7936210131332L466.0412757973734 -64.16510318949344ZM485.3658536585366 -64.16510318949344 489.1181988742964 -75.79737335834896H551.4071294559099L547.6547842401501 -64.16510318949344ZM408.6303939962476 -78.98686679174483 411.81988742964353 -89.11819887429643H474.10881801125703L470.9193245778612 -78.98686679174483ZM490.2439024390244 -78.98686679174483 493.43339587242025 -89.11819887429643H555.7223264540337L552.5328330206379 -78.98686679174483ZM477.67354596622886 -100.0 475.609756097561 -93.80863039399624H413.32082551594743L415.38461538461536 -100.0ZM494.9343339587242 -93.80863039399624 496.9981238273921 -100.0H559.2870544090056L557.2232645403377 -93.80863039399624Z M596.6228893058161 0.0H539.2120075046904L549.155722326454 -30.581613508442775H606.5666041275797Z M764.7279549718573 0.0H708.6303939962477L704.6904315196998 -26.641651031894934L683.4896810506566 0.0H627.3921200750469L624.390243902439 -62.476547842401494H810.6941838649155ZM753.0956848030019 -75.79737335834896 753.4709193245778 -69.98123827392119 757.4108818011257 -75.79737335834896H820.4502814258911L811.8198874296435 -64.16510318949344H624.202626641651L623.6397748592871 -75.79737335834896H683.6772983114447L683.8649155722326 -69.98123827392119L687.9924953095684 -75.79737335834896ZM759.6622889305816 -78.98686679174483 766.4165103189493 -89.11819887429643H830.2063789868668L822.8893058161351 -78.98686679174483ZM623.6397748592871 -78.98686679174483 623.0769230769231 -89.11819887429643H683.3020637898687L683.6772983114447 -78.98686679174483ZM690.2439024390244 -78.98686679174483 697.373358348968 -89.11819887429643H752.3452157598499L752.9080675422139 -78.98686679174483ZM769.6060037523453 -93.80863039399624 773.9212007504691 -100.0H838.2739212007505L833.5834896810507 -93.80863039399624ZM622.5140712945591 -100.0H683.1144465290806V-93.80863039399624H622.7016885553471ZM751.7823639774859 -100.0 751.9699812382739 -93.80863039399624H700.750469043152L705.2532833020638 -100.0Z M960.2251407129456 0.0H897.936210131332L909.9437148217636 -36.96060037523452H890.6191369606004L878.6116322701688 0.0H816.3227016885553L836.5853658536586 -62.476547842401494H980.4878048780488ZM837.1482176360225 -64.16510318949344 840.9005628517823 -75.79737335834896H903.1894934333959L899.437148217636 -64.16510318949344ZM918.7617260787993 -64.16510318949344 922.514071294559 -75.79737335834896H984.8030018761726L981.0506566604128 -64.16510318949344ZM842.0262664165103 -78.98686679174483 845.2157598499061 -89.11819887429643H907.5046904315196L904.3151969981238 -78.98686679174483ZM923.6397748592871 -78.98686679174483 926.8292682926829 -89.11819887429643H989.1181988742965L985.9287054409006 -78.98686679174483ZM911.0694183864915 -100.0 909.0056285178237 -93.80863039399624H846.7166979362102L848.780487804878 -100.0ZM928.3302063789869 -93.80863039399624 930.3939962476547 -100.0H992.6829268292682L990.6191369606004 -93.80863039399624Z M1054.4090056285177 -60.22514071294559 1047.842401500938 -39.774859287054404Q1046.341463414634 -34.8968105065666 1049.6247654784238 -32.833020637898684Q1052.9080675422138 -30.769230769230766 1057.0356472795497 -30.393996247654783Q1059.0994371482175 -30.581613508442775 1061.4446529080674 -31.144465290806753Q1063.7898686679173 -31.70731707317073 1065.947467166979 -32.833020637898684Q1068.1050656660411 -33.95872420262664 1069.793621013133 -35.647279549718576Q1071.482176360225 -37.3358348968105 1072.232645403377 -39.774859287054404L1078.7992495309568 -60.22514071294559Q1079.1744840525328 -61.350844277673545 1079.1744840525328 -62.476547842401494H1141.8386491557221L1130.2063789868666 -26.829268292682926Q1129.0806754221387 -22.88930581613508 1125.1407129455908 -18.292682926829265Q1121.200750469043 -13.696060037523452 1116.1350844277672 -9.568480300187616Q1111.0694183864914 -5.440900562851782 1105.9099437148216 -2.720450281425891Q1100.750469043152 0.0 1097.18574108818 0.0H996.998123827392Q993.2457786116322 0.0 989.8686679174483 -2.720450281425891Q986.4915572232644 -5.440900562851782 984.2401500938086 -9.568480300187616Q981.9887429643526 -13.696060037523452 981.0506566604126 -18.292682926829265Q980.1125703564727 -22.88930581613508 981.2382739212006 -26.829268292682926L992.8705440900562 -62.476547842401494H1055.5347091932456ZM993.4333958724202 -64.16510318949344 996.435272045028 -73.17073170731707Q996.622889305816 -73.54596622889305 996.810506566604 -74.20262664165102Q996.998123827392 -74.859287054409 997.3733583489679 -75.79737335834896H1145.77861163227Q1145.77861163227 -75.046904315197 1145.403377110694 -73.17073170731707L1142.4015009380862 -64.16510318949344H1078.9868667917447Q1078.0487804878048 -66.79174484052533 1075.328330206379 -68.01125703564728Q1072.607879924953 -69.23076923076923 1069.7936210131331 -69.60600375234522Q1066.6041275797372 -69.23076923076923 1062.9455909943713 -68.01125703564728Q1059.2870544090056 -66.79174484052533 1056.8480300187616 -64.16510318949344ZM999.4371482176359 -78.98686679174483Q1001.3133208255158 -81.61350844277673 1003.7523452157598 -84.14634146341463Q1006.1913696060036 -86.67917448405252 1008.8180112570356 -89.11819887429643H1142.9643527204503Q1144.4652908067542 -86.67917448405252 1145.121951219512 -84.14634146341463Q1145.77861163227 -81.61350844277673 1145.966228893058 -78.98686679174483ZM1014.8217636022513 -93.80863039399624Q1018.9493433395871 -96.43527204502814 1022.701688555347 -98.21763602251407Q1026.4540337711069 -100.0 1029.4559099437147 -100.0H1129.6435272045028Q1132.4577861163225 -100.0 1135.1782363977484 -98.21763602251407Q1137.8986866791743 -96.43527204502814 1139.9624765478422 -93.80863039399624Z"/></svg>