<svg xmlns="http://www.w3.org/2000/svg" viewBox="-1.50 -115.94 713.28 124.94" width="713" height="125" role="img" aria-label="ZH.Who - Squared Sci-Fi (ZHw)"><title>ZH.Who - Squared Sci-Fi (ZHw)</title><path class="gold" fill="#d3122e" d="M27.77777777777778 0.0Q22.22222222222222 0.0 17.63888888888889 -2.7777777777777777Q13.055555555555555 -5.555555555555555 10.277777777777779 -10.13888888888889Q7.5 -14.722222222222223 7.5 -20.13888888888889V-79.86111111111111Q7.5 -85.41666666666667 10.277777777777779 -90.0Q13.055555555555555 -94.58333333333334 17.63888888888889 -97.29166666666667Q22.22222222222222 -100.0 27.77777777777778 -100.0H85.41666666666667Q90.97222222222223 -100.0 95.55555555555557 -97.29166666666667Q100.1388888888889 -94.58333333333334 102.91666666666667 -90.0Q105.69444444444444 -85.41666666666667 105.69444444444444 -79.86111111111111V-30.0H52.361111111111114Q46.80555555555556 -30.0 42.91666666666667 -32.013888888888886Q39.02777777777778 -34.02777777777778 36.94444444444444 -37.91666666666667Q34.861111111111114 -41.80555555555556 34.861111111111114 -47.361111111111114V-54.72222222222222Q34.861111111111114 -60.27777777777778 36.94444444444444 -64.16666666666667Q39.02777777777778 -68.05555555555556 42.91666666666667 -70.06944444444446Q46.80555555555556 -72.08333333333334 52.361111111111114 -72.08333333333334H60.97222222222222Q66.52777777777779 -72.08333333333334 70.41666666666667 -70.06944444444446Q74.30555555555556 -68.05555555555556 76.31944444444446 -64.16666666666667Q78.33333333333334 -60.27777777777778 78.33333333333334 -54.72222222222222V-45.97222222222222H84.44444444444444V-78.75Q84.44444444444444 -78.75 84.44444444444444 -78.75Q84.44444444444444 -78.75 84.44444444444444 -78.75H28.75Q28.75 -78.75 28.75 -78.75Q28.75 -78.75 28.75 -78.75V-21.25Q28.75 -21.25 28.75 -21.25Q28.75 -21.25 28.75 -21.25H105.69444444444444V0.0H27.77777777777778ZM49.583333333333336 -45.97222222222222H63.611111111111114V-57.361111111111114Q63.611111111111114 -57.361111111111114 63.611111111111114 -57.361111111111114Q63.611111111111114 -57.361111111111114 63.611111111111114 -57.361111111111114H49.583333333333336Q49.583333333333336 -57.361111111111114 49.583333333333336 -57.361111111111114Q49.583333333333336 -57.361111111111114 49.583333333333336 -57.361111111111114V-45.97222222222222Q49.583333333333336 -45.97222222222222 49.583333333333336 -45.97222222222222Q49.583333333333336 -45.97222222222222 49.583333333333336 -45.97222222222222Z M120.27777777777777 0.0V-22.083333333333336L187.22222222222223 -78.33333333333334H120.27777777777777V-100.0H220.27777777777777V-77.91666666666667L153.33333333333334 -21.666666666666668H220.27777777777777V0.0Z M235.13888888888889 0.0V-100.0H256.6666666666667V-60.833333333333336H315.69444444444446V-100.0H337.22222222222223V0.0H315.69444444444446V-39.16666666666667H256.6666666666667V0.0Z M352.9166666666667 0.0V-21.25H374.1666666666667V0.0Z M414.30555555555554 0.0 382.63888888888886 -80.55555555555556H405.13888888888886L422.5 -38.75L440.69444444444446 -80.55555555555556H461.25L480.69444444444446 -38.19444444444444L496.80555555555554 -80.55555555555556H519.3055555555555L489.02777777777777 0.0H472.9166666666667L451.1111111111111 -48.05555555555556L430.27777777777777 0.0Z M528.75 0.0V-106.94444444444444H550.0V-80.55555555555556H590.2777777777778Q595.6944444444445 -80.55555555555556 600.2777777777778 -77.77777777777777Q604.8611111111111 -75.0 607.6388888888889 -70.41666666666667Q610.4166666666666 -65.83333333333334 610.4166666666666 -60.41666666666667V0.0H589.1666666666666V-59.30555555555556Q589.1666666666666 -59.30555555555556 589.1666666666666 -59.30555555555556Q589.1666666666666 -59.30555555555556 589.1666666666666 -59.30555555555556H550.0Q550.0 -59.30555555555556 550.0 -59.30555555555556Q550.0 -59.30555555555556 550.0 -59.30555555555556V0.0Z M641.25 0.0Q635.8333333333334 0.0 631.25 -2.7777777777777777Q626.6666666666667 -5.555555555555555 623.8888888888889 -10.13888888888889Q621.1111111111112 -14.722222222222223 621.1111111111112 -20.13888888888889V-60.41666666666667Q621.1111111111112 -65.83333333333334 623.8888888888889 -70.41666666666667Q626.6666666666667 -75.0 631.25 -77.77777777777777Q635.8333333333334 -80.55555555555556 641.25 -80.55555555555556H682.6388888888889Q688.1944444444445 -80.55555555555556 692.7777777777778 -77.77777777777777Q697.3611111111112 -75.0 700.0694444444446 -70.41666666666667Q702.7777777777778 -65.83333333333334 702.7777777777778 -60.41666666666667V-20.13888888888889Q702.7777777777778 -14.722222222222223 700.0694444444446 -10.13888888888889Q697.3611111111112 -5.555555555555555 692.7777777777778 -2.7777777777777777Q688.1944444444445 0.0 682.6388888888889 0.0H641.25ZM642.3611111111112 -21.25H681.5277777777778Q681.5277777777778 -21.25 681.5277777777778 -21.25Q681.5277777777778 -21.25 681.5277777777778 -21.25V-59.30555555555556Q681.5277777777778 -59.30555555555556 681.5277777777778 -59.30555555555556Q681.5277777777778 -59.30555555555556 681.5277777777778 -59.30555555555556H642.3611111111112Q642.3611111111112 -59.30555555555556 642.3611111111112 -59.30555555555556Q642.3611111111112 -59.30555555555556 642.3611111111112 -59.30555555555556V-21.25Q642.3611111111112 -21.25 642.3611111111112 -21.25Q642.3611111111112 -21.25 642.3611111111112 -21.25Z"/></svg>