<svg xmlns="http://www.w3.org/2000/svg" viewBox="-11.65 -115.06 649.40 149.31" width="649" height="149" role="img" aria-label="ZH.Who - Combustion Chamber (zHw)"><title>ZH.Who - Combustion Chamber (zHw)</title><path class="gold" fill="#d3122e" d="M69.71935007385525 25.258493353028065 72.82127031019202 9.453471196454949H17.725258493353028C13.737075332348597 9.453471196454949 13.441654357459381 8.862629246676514 14.327917282127032 4.283604135893649L29.098966026587888 -69.71935007385525C29.98522895125554 -74.29837518463812 30.576070901033976 -74.74150664697194 34.711964549483014 -74.74150664697194H72.82127031019202C76.95716395864106 -74.74150664697194 77.25258493353029 -74.1506646971935 76.36632200886264 -69.71935007385525L67.2082717872969 -23.78138847858198C66.32200886262925 -19.202363367799116 65.58345642540621 -18.61152141802068 61.595273264401776 -18.61152141802068H49.48301329394387C45.49483013293944 -18.61152141802068 45.19940915805022 -19.202363367799116 46.08567208271788 -23.78138847858198L49.9261447562777 -43.1314623338257C50.81240768094535 -47.56277695716396 51.55096011816839 -48.1536189069424 55.391432791728214 -48.1536189069424H64.69719350073855L67.0605612998523 -60.2658788774003H52.73264401772526C43.72230428360414 -60.2658788774003 38.99556868537666 -56.129985228951256 37.07533234859675 -46.82422451994092L31.610044313146236 -19.350073855243725C29.689807976366325 -9.748892171344165 32.64401772525849 -5.908419497784343 41.949778434268836 -5.908419497784343H64.54948301329395C73.85524372230428 -5.908419497784343 78.13884785819793 -9.601181683899558 80.05908419497784 -19.350073855243725L91.2850812407681 -75.03692762186115C93.20531757754802 -84.78581979320532 90.25110782865583 -88.47858197932054 81.0930576070901 -88.47858197932054H30.723781388478585C21.418020679468242 -88.47858197932054 17.282127031019204 -84.78581979320532 15.361890694239293 -75.03692762186115L-2.06794682422452 11.816838995568686C-3.9881831610044314 21.56573116691285 -1.3293943870014773 25.258493353028065 7.976366322008863 25.258493353028065Z M160.70901033973414 0.0 163.6632200886263 -16.691285081240768H120.384047267356L173.11669128508126 -60.2658788774003L175.6277695716396 -74.74150664697194H106.20384047267356L103.397341211226 -58.34564254062039H146.52880354505172L93.94387001477105 -15.657311669128509L91.1373707533235 0.0Z M238.10930576070902 0.0H260.5612998522895L280.5022156573117 -100.0H258.0502215657312L250.22156573116692 -61.00443131462334H211.07828655834564L218.9069423929099 -100.0H196.4549483013294L176.51403249630724 0.0H198.96602658788774L207.0901033973412 -40.76809453471196H246.2333825701625Z M296.1595273264402 0.0 300.59084194977845 -22.304283604135893H281.83161004431315L277.4002954209749 0.0Z M408.2717872968981 0.0 446.5288035450517 -74.74150664697194H426.58788774002954L399.261447562777 -19.64549483013294L394.2392909896603 -74.74150664697194H371.7872968980798L341.2112259970458 -19.64549483013294L338.25701624815366 -74.74150664697194H318.7592319054653L325.1107828655835 0.0H348.89217134416543L379.76366322008863 -53.766617429837524L384.0472673559823 0.0Z M522.1565731166913 0.0 534.1211225997046 -60.11816838995569C536.1890694239291 -70.45790251107829 532.9394387001478 -74.74150664697194 523.0428360413589 -74.74150664697194H489.5125553914328C483.1610044313146 -74.74150664697194 477.6957163958641 -71.63958641063516 475.33234859675036 -66.91285081240768L483.01329394387005 -106.05612998522895H463.5155096011817L442.39290989660265 0.0H461.890694239291L472.52584933530284 -52.28951255539143C473.55982274741507 -57.01624815361891 474.8892171344166 -58.05022156573117 479.3205317577548 -58.05022156573117H509.7488921713442C513.8847858197933 -58.05022156573117 514.6233382570163 -57.163958641063516 513.2939438700148 -52.28951255539143L502.65878877400297 0.0Z M602.2156573116691 0.0C612.2599704579026 0.0 616.8389955686854 -3.9881831610044314 619.0546528803545 -14.623338257016249L628.0649926144756 -60.11816838995569C630.2806499261447 -70.75332348596751 627.178729689808 -74.74150664697194 617.1344165435746 -74.74150664697194H566.7651403249631C556.5731166912851 -74.74150664697194 551.9940915805022 -70.75332348596751 549.778434268833 -60.11816838995569L540.768094534712 -14.623338257016249C538.5524372230428 -3.9881831610044314 541.6543574593796 0.0 551.8463810930576 0.0ZM601.0339734121122 -23.04283604135894C599.8522895125554 -18.168389955686855 599.1137370753323 -17.429837518463813 594.6824224519942 -17.429837518463813H565.288035450517C560.8567208271787 -17.429837518463813 560.4135893648449 -18.168389955686855 561.5952732644018 -23.04283604135894L567.94682422452 -52.28951255539143C569.1285081240768 -57.31166912850813 570.0147710487445 -58.05022156573117 574.2983751846382 -58.05022156573117H603.6927621861153C607.9763663220089 -58.05022156573117 608.5672082717873 -57.31166912850813 607.3855243722304 -52.28951255539143Z"/></svg>