<svg xmlns="http://www.w3.org/2000/svg" viewBox="-0.43 -114.71 549.86 129.43" width="550" height="129" role="img" aria-label="ZH.Who - grok · Corp ID Plate (Zhw)"><title>ZH.Who - grok · Corp ID Plate (Zhw)</title><path class="gold" fill="#d3122e" d="M82.85714285714285 -62.14285714285714Q82.85714285714285 -65.42857142857143 82.5 -66.28571428571428Q82.14285714285714 -67.14285714285714 80.28571428571428 -68.71428571428571L78.57142857142857 -70.14285714285714Q76.71428571428571 -71.71428571428571 75.85714285714286 -72.0Q75.0 -72.28571428571428 72.42857142857143 -72.28571428571428H27.857142857142854Q25.285714285714285 -72.28571428571428 24.428571428571427 -72.0Q23.57142857142857 -71.71428571428571 21.71428571428571 -70.14285714285714L20.0 -68.71428571428571Q18.142857142857142 -67.14285714285714 17.785714285714285 -66.28571428571428Q17.428571428571427 -65.42857142857143 17.428571428571427 -62.14285714285714V-12.142857142857142Q17.428571428571427 -8.857142857142856 17.785714285714285 -7.999999999999999Q18.142857142857142 -7.142857142857142 20.0 -5.571428571428571L21.71428571428571 -4.142857142857142Q23.57142857142857 -2.571428571428571 24.428571428571427 -2.2857142857142856Q25.285714285714285 -2.0 27.857142857142854 -2.0H84.85714285714285V5.7142857142857135H22.285714285714285Q18.857142857142858 5.7142857142857135 15.428571428571427 2.8571428571428568L12.0 0.0Q8.571428571428571 -2.8571428571428568 8.571428571428571 -7.142857142857142V-67.14285714285714Q8.571428571428571 -71.42857142857143 12.0 -74.28571428571428L15.428571428571427 -77.14285714285714Q18.857142857142858 -80.0 22.285714285714285 -80.0H78.0Q81.42857142857143 -80.0 84.85714285714285 -77.14285714285714L88.28571428571428 -74.28571428571428Q91.71428571428571 -71.42857142857143 91.71428571428571 -67.14285714285714V-17.142857142857142L84.85714285714285 -11.428571428571427H71.71428571428571Q69.14285714285714 -11.428571428571427 67.28571428571428 -13.0Q65.85714285714285 -14.285714285714285 65.57142857142857 -15.571428571428571H65.0Q65.0 -14.285714285714285 62.857142857142854 -13.0Q60.285714285714285 -11.428571428571427 57.57142857142857 -11.428571428571427H38.42857142857142Q35.857142857142854 -11.428571428571427 33.285714285714285 -13.428571428571427L30.857142857142854 -15.571428571428571Q28.285714285714285 -17.57142857142857 28.285714285714285 -20.857142857142858V-53.42857142857142Q28.285714285714285 -56.42857142857142 30.857142857142854 -58.71428571428571L33.285714285714285 -60.71428571428571Q35.714285714285715 -62.857142857142854 38.42857142857142 -62.857142857142854H58.285714285714285Q61.0 -62.857142857142854 62.285714285714285 -61.857142857142854Q63.42857142857142 -60.71428571428571 63.42857142857142 -59.71428571428571H64.0V-62.857142857142854H72.0V-22.71428571428571Q72.0 -20.428571428571427 73.28571428571428 -19.428571428571427Q74.57142857142857 -18.285714285714285 76.85714285714285 -18.285714285714285H79.42857142857143L82.85714285714285 -21.428571428571427ZM38.285714285714285 -49.57142857142857V-24.71428571428571Q38.285714285714285 -22.428571428571427 39.57142857142857 -21.428571428571427Q40.857142857142854 -20.285714285714285 43.42857142857142 -20.285714285714285H54.285714285714285Q57.0 -20.285714285714285 59.57142857142857 -21.857142857142858Q61.42857142857142 -23.0 61.71428571428571 -23.5Q62.0 -24.0 62.0 -25.71428571428571V-49.57142857142857Q62.0 -51.857142857142854 60.857142857142854 -52.857142857142854Q59.57142857142857 -53.857142857142854 56.857142857142854 -53.857142857142854H43.42857142857142Q40.857142857142854 -53.857142857142854 39.57142857142857 -52.857142857142854Q38.285714285714285 -51.857142857142854 38.285714285714285 -49.57142857142857Z M119.57142857142856 -10.0H174.1428571428571V0.0H106.71428571428571V-10.571428571428571L157.7142857142857 -87.0Q159.42857142857142 -88.85714285714285 160.7142857142857 -89.28571428571428V-90.0H106.99999999999999V-100.0H173.85714285714283V-89.14285714285714L122.57142857142856 -13.0Q121.28571428571428 -11.142857142857142 119.57142857142856 -10.714285714285714Z M210.28571428571428 -71.42857142857143H235.28571428571428Q238.7142857142857 -71.42857142857143 242.1428571428571 -68.57142857142857L245.57142857142856 -65.71428571428571Q249.0 -62.857142857142854 249.0 -58.57142857142857V0.0H236.99999999999997V-55.57142857142857Q236.99999999999997 -57.71428571428571 236.78571428571428 -58.357142857142854Q236.57142857142856 -59.0 235.28571428571428 -60.0Q233.99999999999997 -61.0 233.28571428571428 -61.21428571428571Q232.57142857142856 -61.42857142857142 229.99999999999997 -61.42857142857142H211.7142857142857Q208.99999999999997 -61.42857142857142 208.07142857142856 -61.14285714285714Q207.1428571428571 -60.857142857142854 204.57142857142856 -59.28571428571428Q201.99999999999997 -57.71428571428571 201.57142857142856 -57.0Q201.1428571428571 -56.285714285714285 201.1428571428571 -54.14285714285714V0.0H189.14285714285714V-105.71428571428571H201.1428571428571V-64.71428571428571H201.7142857142857Q201.7142857142857 -66.0 204.85714285714283 -68.71428571428572Q207.99999999999997 -71.42857142857143 210.28571428571428 -71.42857142857143Z M278.1428571428571 -8.428571428571429V-5.142857142857142Q278.1428571428571 -3.0 278.0 -2.4285714285714284Q277.85714285714283 -1.857142857142857 276.85714285714283 -1.0Q275.85714285714283 0.0 272.57142857142856 0.0H271.85714285714283Q268.4285714285714 0.0 267.2857142857143 -1.0Q266.1428571428571 -2.142857142857143 266.1428571428571 -5.142857142857142V-8.428571428571429Q266.1428571428571 -10.571428571428571 266.2857142857142 -11.142857142857142Q266.4285714285714 -11.714285714285714 267.4285714285714 -12.571428571428571Q268.4285714285714 -13.571428571428571 271.85714285714283 -13.571428571428571H272.4285714285714Q275.85714285714283 -13.571428571428571 277.0 -12.571428571428571Q278.1428571428571 -11.428571428571427 278.1428571428571 -8.428571428571429Z M338.8571428571429 -58.285714285714285 324.7142857142857 0.0H309.14285714285717L288.8571428571429 -71.42857142857143H300.42857142857144L315.8571428571429 -12.142857142857142Q316.57142857142856 -10.0 316.57142857142856 -8.714285714285714H317.14285714285717Q317.14285714285717 -10.0 317.8571428571429 -12.142857142857142L332.57142857142856 -71.42857142857143H347.14285714285717L361.8571428571429 -12.142857142857142Q362.57142857142856 -9.285714285714285 362.57142857142856 -8.714285714285714H363.14285714285717Q363.14285714285717 -10.0 363.8571428571429 -12.142857142857142L379.2857142857143 -71.42857142857143H390.8571428571429L370.57142857142856 0.0H355.0L340.8571428571429 -58.285714285714285Q340.14285714285717 -61.14285714285714 340.14285714285717 -61.71428571428571H339.57142857142856Q339.57142857142856 -61.14285714285714 338.8571428571429 -58.285714285714285Z M422.7142857142857 -71.42857142857143H447.7142857142857Q451.1428571428571 -71.42857142857143 454.57142857142856 -68.57142857142857L458.0 -65.71428571428571Q461.42857142857144 -62.857142857142854 461.42857142857144 -58.57142857142857V0.0H449.42857142857144V-55.57142857142857Q449.42857142857144 -57.71428571428571 449.2142857142857 -58.357142857142854Q449.0 -59.0 447.7142857142857 -60.0Q446.42857142857144 -61.0 445.7142857142857 -61.21428571428571Q445.0 -61.42857142857142 442.42857142857144 -61.42857142857142H424.14285714285717Q421.42857142857144 -61.42857142857142 420.5 -61.14285714285714Q419.57142857142856 -60.857142857142854 417.0 -59.28571428571428Q414.42857142857144 -57.71428571428571 414.0 -57.0Q413.57142857142856 -56.285714285714285 413.57142857142856 -54.14285714285714V0.0H401.57142857142856V-105.71428571428571H413.57142857142856V-64.71428571428571H414.14285714285717Q414.14285714285717 -66.0 417.28571428571433 -68.71428571428572Q420.42857142857144 -71.42857142857143 422.7142857142857 -71.42857142857143Z M492.42857142857144 -71.42857142857143H526.7142857142857Q530.1428571428571 -71.42857142857143 533.5714285714286 -68.57142857142857L537.0 -65.71428571428571Q540.4285714285714 -62.857142857142854 540.4285714285714 -58.57142857142857V-12.857142857142856Q540.4285714285714 -8.571428571428571 537.0 -5.7142857142857135L533.5714285714286 -2.8571428571428568Q530.1428571428571 0.0 526.7142857142857 0.0H492.42857142857144Q489.0 0.0 485.57142857142856 -2.8571428571428568L482.14285714285717 -5.7142857142857135Q478.7142857142857 -8.571428571428571 478.7142857142857 -12.857142857142856V-58.57142857142857Q478.7142857142857 -62.857142857142854 482.14285714285717 -65.71428571428571L485.57142857142856 -68.57142857142857Q489.0 -71.42857142857143 492.42857142857144 -71.42857142857143ZM528.4285714285714 -15.857142857142856V-55.57142857142857Q528.4285714285714 -57.71428571428571 528.2142857142858 -58.357142857142854Q528.0 -59.0 526.7142857142858 -60.0Q525.4285714285714 -61.0 524.7142857142858 -61.21428571428571Q524.0 -61.42857142857142 521.4285714285714 -61.42857142857142H497.7142857142857Q495.14285714285717 -61.42857142857142 494.42857142857144 -61.21428571428571Q493.7142857142857 -61.0 492.42857142857144 -60.0Q491.14285714285717 -59.0 490.92857142857144 -58.357142857142854Q490.7142857142857 -57.71428571428571 490.7142857142857 -55.57142857142857V-15.857142857142856Q490.7142857142857 -13.714285714285714 490.92857142857144 -13.07142857142857Q491.14285714285717 -12.428571428571427 492.42857142857144 -11.428571428571427Q493.7142857142857 -10.428571428571429 494.42857142857144 -10.214285714285715Q495.14285714285717 -10.0 497.7142857142857 -10.0H521.4285714285714Q524.0 -10.0 524.7142857142858 -10.214285714285715Q525.4285714285714 -10.428571428571429 526.7142857142858 -11.428571428571427Q528.0 -12.428571428571427 528.2142857142858 -13.07142857142857Q528.4285714285714 -13.714285714285714 528.4285714285714 -15.857142857142856Z"/></svg>